<?xml version="1.0" encoding="UTF-8"?>
<svg version="1.1" xmlns="http://www.w3.org/2000/svg" width="342" height="299">
<path d="M0 0 C112.86 0 225.72 0 342 0 C342 98.67 342 197.34 342 299 C229.14 299 116.28 299 0 299 C0 200.33 0 101.66 0 0 Z " fill="#FAFBF9" transform="translate(0,0)"/>
<path d="M0 0 C0.86367187 -0.00386719 1.72734375 -0.00773437 2.6171875 -0.01171875 C9.76240422 -0.00085976 16.24744768 0.64447058 23 3.125 C24.23363281 3.56199219 25.46726562 3.99898437 26.73828125 4.44921875 C39.19343946 9.14498273 49.41302417 17.03988404 58 27.125 C58.75228882 28.00744385 58.75228882 28.00744385 59.51977539 28.90771484 C63.67038089 34.07979671 66.05647011 39.42203026 68.3125 45.625 C68.65861328 46.52347656 69.00472656 47.42195313 69.36132812 48.34765625 C76.67020993 67.92349174 74.49303031 90.82915366 66.26489258 109.72216797 C58.4204043 126.84530643 46.0016582 141.13323816 30 151.125 C29.15566406 151.68703125 28.31132812 152.2490625 27.44140625 152.828125 C19.79647614 157.7656918 11.77346901 161.9028539 3.6875 166.0625 C-16.83768579 176.47255333 -16.83768579 176.47255333 -35.7421875 189.47265625 C-38 191.125 -38 191.125 -40 191.125 C-40 191.785 -40 192.445 -40 193.125 C-45.47619048 198.125 -45.47619048 198.125 -48 198.125 C-48.26554688 198.72054687 -48.53109375 199.31609375 -48.8046875 199.9296875 C-50.03446248 202.18829384 -51.24774053 203.51244356 -53.125 205.25 C-63.73172556 215.59210871 -70.85247354 226.92582118 -75 241.125 C-59.98008816 240.40795318 -59.98008816 240.40795318 -45 239.125 C-45 238.465 -45 237.805 -45 237.125 C-44.23558594 236.9290625 -43.47117188 236.733125 -42.68359375 236.53125 C-35.97890259 234.65942286 -30.00178821 232.34173182 -23.875 229.0625 C-23.23618896 228.7221875 -22.59737793 228.381875 -21.93920898 228.03125 C-19.4689283 226.67016275 -17.28535407 225.42163551 -15.3203125 223.37890625 C-14 222.125 -14 222.125 -10 222.125 C-10 221.465 -10 220.805 -10 220.125 C-9.01 220.125 -8.02 220.125 -7 220.125 C-14.22916022 236.27996009 -33.82755958 245.9335945 -49 253.125 C-50.00417969 253.60324219 -51.00835937 254.08148438 -52.04296875 254.57421875 C-66.54931472 260.40540155 -84.78328551 258.1380656 -98.98242188 252.31152344 C-122.30703969 242.03731374 -147.53390823 225.45102561 -165.09765625 206.99609375 C-167.17132406 204.9564903 -169.36196208 203.24510809 -171.6875 201.5 C-175.37792427 198.71643767 -178.07740778 195.72203658 -181 192.125 C-182.25672809 191.04585306 -183.52901627 189.98468343 -184.8125 188.9375 C-188.90955207 185.43889374 -191.84870747 181.49781686 -194.921875 177.09375 C-197.10189456 173.97943635 -199.3823655 170.96012669 -201.6875 167.9375 C-211 155.54768599 -211 155.54768599 -211 152.125 C-211.66 152.125 -212.32 152.125 -213 152.125 C-213.23074219 151.59132812 -213.46148437 151.05765625 -213.69921875 150.5078125 C-215.52415686 146.33858631 -217.42601758 142.23914987 -219.5 138.1875 C-221.97795022 133.26191087 -224.07904112 128.29092528 -226 123.125 C-226.56267578 121.83529297 -226.56267578 121.83529297 -227.13671875 120.51953125 C-232.9439692 105.42068008 -231.39271925 85.71845964 -228 70.125 C-227.84015625 69.31417969 -227.6803125 68.50335938 -227.515625 67.66796875 C-223.33341778 50.62830013 -211.80315403 34.47749571 -197 25.125 C-196.32839844 24.69960938 -195.65679687 24.27421875 -194.96484375 23.8359375 C-188.6641263 20.1081083 -181.90284231 17.51832124 -175 15.125 C-173.93136719 14.75375 -172.86273438 14.3825 -171.76171875 14 C-166.93177226 12.87652335 -162.38035625 12.78313144 -157.4375 12.8125 C-156.46385498 12.81741455 -155.49020996 12.8223291 -154.48706055 12.82739258 C-130.85999259 13.20894771 -111.82626933 24.10787726 -95.453125 40.70703125 C-91.34585832 45.06936704 -88.62884987 48.26283717 -87 54.125 C-86.34 54.125 -85.68 54.125 -85 54.125 C-83.02 59.075 -81.04 64.025 -79 69.125 C-78.61328125 67.90683594 -78.2265625 66.68867187 -77.828125 65.43359375 C-77.30249208 63.80976347 -76.77642738 62.1860729 -76.25 60.5625 C-75.99734375 59.76263672 -75.7446875 58.96277344 -75.484375 58.13867188 C-73.818694 53.03752381 -71.76687866 48.71917145 -69 44.125 C-68.38125 42.51625 -68.38125 42.51625 -67.75 40.875 C-61.29736152 25.57985693 -45.1831838 11.83095907 -30.03027344 5.27246094 C-20.07501316 1.40177823 -10.62532117 -0.04757606 0 0 Z " fill="#05999D" transform="translate(253,17.875)"/>
<path d="M0 0 C0.92586914 0.00572021 1.85173828 0.01144043 2.80566406 0.01733398 C16.13102917 0.36388682 25.95979474 6.26139451 35.0625 15.75 C38.60328211 20.07762257 40.11276253 25.22725575 41.75 30.5 C42.08 31.49 42.41 32.48 42.75 33.5 C43.39343397 43.95580204 42.4160919 53.34345944 39.75 63.5 C39.09 63.5 38.43 63.5 37.75 63.5 C37.35361328 64.58667969 37.35361328 64.58667969 36.94921875 65.6953125 C29.84002991 82.32201475 13.47789989 92.14391361 -1.04125977 101.60595703 C-20.39739991 114.24720007 -36.40116512 128.45722274 -48.25 148.5 C-48.8790625 149.55058594 -49.508125 150.60117188 -50.15625 151.68359375 C-57.42545877 164.45253284 -61.64729967 178.09382537 -64.25 192.5 C-64.91 192.5 -65.57 192.5 -66.25 192.5 C-72.67049093 149.34098186 -72.67049093 149.34098186 -69.25 142.5 C-69.17818179 139.78239892 -69.15700494 137.09140612 -69.1875 134.375 C-69.19201172 133.62089844 -69.19652344 132.86679688 -69.20117188 132.08984375 C-69.21296501 130.22652873 -69.23090058 128.36325445 -69.25 126.5 C-69.91 126.5 -70.57 126.5 -71.25 126.5 C-71.49234375 125.69175781 -71.7346875 124.88351563 -71.984375 124.05078125 C-72.48710937 122.44783203 -72.48710937 122.44783203 -73 120.8125 C-73.48726562 119.22888672 -73.48726562 119.22888672 -73.984375 117.61328125 C-79.06487737 105.11587263 -95.72392797 98.16193012 -107.25 92.5 C-108.24 92.17 -109.23 91.84 -110.25 91.5 C-110.27932237 95.16664954 -110.29690637 98.8332684 -110.3125 102.5 C-110.32506836 104.04494141 -110.32506836 104.04494141 -110.33789062 105.62109375 C-110.36761785 114.95544268 -109.83773864 122.36157895 -105.5 130.75 C-105.16484375 131.44351563 -104.8296875 132.13703125 -104.484375 132.8515625 C-102.33265092 137.10610784 -100.24826669 139.73145231 -96.25 142.5 C-95.775625 142.995 -95.30125 143.49 -94.8125 144 C-91.13335424 147.53197993 -86.96610983 149.70148354 -82.25 151.5 C-82.22494385 152.30518066 -82.1998877 153.11036133 -82.17407227 153.93994141 C-82.07748842 157.00040103 -81.9783739 160.06076662 -81.87768555 163.12109375 C-81.81436561 165.06764815 -81.75382035 167.0142922 -81.69335938 168.9609375 C-81.40718071 184.33009206 -81.40718071 184.33009206 -79.25 199.5 C-83.19874191 197.90370008 -85.87687524 195.17066525 -88.8125 192.1875 C-89.53469727 191.4769043 -89.53469727 191.4769043 -90.27148438 190.75195312 C-93.1372702 187.87039957 -95.25605303 185.02431522 -97.25 181.5 C-98.48290734 179.77929019 -99.73396636 178.07148507 -101 176.375 C-103.69982319 172.70990427 -106.20180005 169.0158886 -108.5625 165.125 C-114.95834036 154.92936332 -123.41533778 146.1763967 -131.64453125 137.44921875 C-134.17793971 134.58156749 -136.45808037 131.63204657 -138.72583008 128.55493164 C-140.19066431 126.57999816 -141.69371035 124.64269901 -143.21484375 122.7109375 C-157.4055102 104.51211261 -165.1476536 86.42536276 -162.9296875 63.13671875 C-161.11502009 50.15359825 -155.40836255 40.1737511 -144.9375 32.1875 C-133.14703133 24.04607597 -120.35431339 21.91595504 -106.25 23.5 C-96.56283714 25.57808333 -87.84817718 30.2069519 -80.25 36.5 C-79.40953125 37.17933594 -78.5690625 37.85867187 -77.703125 38.55859375 C-70.27806517 44.86989461 -63.5919641 52.20933979 -60.25 61.5 C-59.26 61.5 -58.27 61.5 -57.25 61.5 C-57.146875 60.5925 -57.04375 59.685 -56.9375 58.75 C-56.71801679 57.33180082 -56.48749793 55.9152938 -56.25 54.5 C-56.12367188 53.6853125 -55.99734375 52.870625 -55.8671875 52.03125 C-52.26099692 33.94950566 -41.36737066 17.76395394 -26.19140625 7.4140625 C-23.57289669 5.92503487 -21.0327619 4.64940165 -18.25 3.5 C-17.38955078 3.10917236 -17.38955078 3.10917236 -16.51171875 2.71044922 C-10.99368753 0.36917189 -5.95675577 -0.04273372 0 0 Z " fill="#F9FBFA" transform="translate(235.25,49.5)"/>
<path d="M0 0 C0.86367187 -0.00386719 1.72734375 -0.00773437 2.6171875 -0.01171875 C9.76240422 -0.00085976 16.24744768 0.64447058 23 3.125 C24.23363281 3.56199219 25.46726562 3.99898437 26.73828125 4.44921875 C39.19343946 9.14498273 49.41302417 17.03988404 58 27.125 C58.75228882 28.00744385 58.75228882 28.00744385 59.51977539 28.90771484 C63.67038089 34.07979671 66.05647011 39.42203026 68.3125 45.625 C68.65861328 46.52347656 69.00472656 47.42195313 69.36132812 48.34765625 C76.67020993 67.92349174 74.49303031 90.82915366 66.26489258 109.72216797 C58.4204043 126.84530643 46.0016582 141.13323816 30 151.125 C29.15566406 151.68703125 28.31132812 152.2490625 27.44140625 152.828125 C19.79647614 157.7656918 11.77346901 161.9028539 3.6875 166.0625 C-16.83768579 176.47255333 -16.83768579 176.47255333 -35.7421875 189.47265625 C-38 191.125 -38 191.125 -40 191.125 C-40 191.785 -40 192.445 -40 193.125 C-45.47619048 198.125 -45.47619048 198.125 -48 198.125 C-48.26554687 198.72054687 -48.53109375 199.31609375 -48.8046875 199.9296875 C-50.03446248 202.18829384 -51.24774053 203.51244356 -53.125 205.25 C-61.19710361 213.12072057 -67.11876075 222.09946567 -72.54296875 231.91796875 C-73.02378906 232.64628906 -73.50460938 233.37460938 -74 234.125 C-74.66 234.125 -75.32 234.125 -76 234.125 C-76 236.105 -76 238.085 -76 240.125 C-78.8951683 239.82549983 -79.83823494 239.31565168 -81.75 237.0625 C-86.08428842 226.87692222 -81.00219717 211.61093615 -77.078125 201.7421875 C-76.54445312 200.44667969 -76.54445312 200.44667969 -76 199.125 C-75.66484375 198.22007812 -75.3296875 197.31515625 -74.984375 196.3828125 C-63.43167543 166.36206502 -40.68531656 146.42887767 -14.4375 129.125 C-0.88894851 120.17447029 10.78263581 111.50398582 18.73828125 97.03125 C19.15464844 96.4021875 19.57101562 95.773125 20 95.125 C20.66 95.125 21.32 95.125 22 95.125 C24.75717318 79.36972468 26.89266769 62.76912312 17.3125 48.8125 C10.58737396 40.72893204 1.2300176 34.04777469 -9.41259766 32.85449219 C-26.79444515 31.70277992 -38.45528835 35.16051825 -51.7890625 46.49609375 C-62.97787692 56.86809389 -68.34410705 70.22092984 -74 84.125 C-74.66 84.125 -75.32 84.125 -76 84.125 C-79.69159644 75.58818323 -78.4067839 67.46059646 -75.75 58.875 C-75.54560303 58.21387207 -75.34120605 57.55274414 -75.13061523 56.87158203 C-73.59676218 52.2439468 -71.48228166 48.31639363 -69 44.125 C-68.38125 42.51625 -68.38125 42.51625 -67.75 40.875 C-61.29736152 25.57985693 -45.1831838 11.83095907 -30.03027344 5.27246094 C-20.07501316 1.40177823 -10.62532117 -0.04757606 0 0 Z " fill="#043475" transform="translate(253,17.875)"/>
<path d="M0 0 C0.99 0 1.98 0 3 0 C-3.14418074 13.73036307 -19.76041585 23.96863389 -33 30 C-33.66 30 -34.32 30 -35 30 C-35 29.34 -35 28.68 -35 28 C-32 26 -32 26 -28 26 C-27.67 24.02 -27.34 22.04 -27 20 C-32.15571369 20 -37.07544837 20.35848279 -42 22 C-43.32 21.34 -44.64 20.68 -46 20 C-42.37 19.67 -38.74 19.34 -35 19 C-35 18.34 -35 17.68 -35 17 C-34.23558594 16.8040625 -33.47117188 16.608125 -32.68359375 16.40625 C-25.97890259 14.53442286 -20.00178821 12.21673182 -13.875 8.9375 C-12.91678345 8.42703125 -12.91678345 8.42703125 -11.93920898 7.90625 C-9.4689283 6.54516275 -7.28535407 5.29663551 -5.3203125 3.25390625 C-4 2 -4 2 0 2 C0 1.34 0 0.68 0 0 Z " fill="#1B9A98" transform="translate(243,238)"/>
<path d="M0 0 C0.86367187 -0.00386719 1.72734375 -0.00773437 2.6171875 -0.01171875 C9.76769805 -0.00085171 16.23278641 0.64919015 23 3.125 C23 3.455 23 3.785 23 4.125 C21.20841511 4.15196365 19.41671527 4.17137917 17.625 4.1875 C16.62726563 4.19910156 15.62953125 4.21070313 14.6015625 4.22265625 C12 4.125 12 4.125 10 3.125 C7.03196071 3.02625897 4.09258454 2.98606768 1.125 3 C0.30902344 2.99613281 -0.50695312 2.99226563 -1.34765625 2.98828125 C-2.13785156 2.98957031 -2.92804688 2.99085937 -3.7421875 2.9921875 C-4.82282471 2.99387939 -4.82282471 2.99387939 -5.92529297 2.99560547 C-8.06662908 3.1291555 -9.93259483 3.56764476 -12 4.125 C-13.5159375 4.3415625 -13.5159375 4.3415625 -15.0625 4.5625 C-18.17544256 4.9615112 -18.17544256 4.9615112 -21 7.125 C-22.66072849 7.80632451 -24.327767 8.47242127 -26 9.125 C-26.61875 9.455 -27.2375 9.785 -27.875 10.125 C-30 11.125 -30 11.125 -33.25 11.875 C-38.46372386 13.61290795 -42.91276138 16.65876279 -46.484375 20.87890625 C-46.98453125 21.29011719 -47.4846875 21.70132813 -48 22.125 C-50.1875 21.8125 -50.1875 21.8125 -52 21.125 C-36.9185027 6.68526854 -20.98611321 -0.09396767 0 0 Z " fill="#22426F" transform="translate(253,17.875)"/>
<path d="M0 0 C0.66 0.33 1.32 0.66 2 1 C3.78904108 8.86294598 4.19169913 17.02051362 4.25 25.0625 C4.25918457 25.76375 4.26836914 26.465 4.27783203 27.1875 C4.25181954 31.52430178 3.47038329 34.94651093 2 39 C1.80345802 40.51511473 1.65253593 42.03734594 1.5625 43.5625 C1.2028213 47.36481768 0.45577566 49.95483818 -2 53 C-2.66 53 -3.32 53 -4 53 C-3.80664062 52.31035156 -3.61328125 51.62070313 -3.4140625 50.91015625 C-3.15367187 49.97042969 -2.89328125 49.03070313 -2.625 48.0625 C-2.36976563 47.14597656 -2.11453125 46.22945312 -1.8515625 45.28515625 C-1.57054687 44.20105469 -1.28953125 43.11695313 -1 42 C-0.82138428 41.34491455 -0.64276855 40.6898291 -0.45874023 40.01489258 C1.1000152 33.82357427 1.26729983 27.92548655 1.1875 21.5625 C1.18685547 20.58990234 1.18621094 19.61730469 1.18554688 18.61523438 C1.14792635 12.35768724 0.74011048 6.21301034 0 0 Z " fill="#BAC9DA" transform="translate(324,72)"/>
<path d="M0 0 C-4.625 3 -4.625 3 -8 3 C-8 3.66 -8 4.32 -8 5 C-9.65071396 6.02611949 -11.31970006 7.02308143 -13 8 C-13.474375 8.515625 -13.94875 9.03125 -14.4375 9.5625 C-16 11 -16 11 -18.875 11.875 C-22.59662555 13.2147852 -24.26986153 15.19801579 -27 18 C-29.1484375 18.65234375 -29.1484375 18.65234375 -31 19 C-24.63614981 10.85234332 -17.11737525 5.73006686 -8 1 C-7.29875 0.61585937 -6.5975 0.23171875 -5.875 -0.1640625 C-3.52111778 -1.21350165 -2.37898142 -0.84963622 0 0 Z " fill="#2AA196" transform="translate(73,37)"/>
<path d="M0 0 C-5.56612969 1.85537656 -11.79089459 -0.64750078 -17 -3 C-17 -3.66 -17 -4.32 -17 -5 C-26.19365504 -4.95400316 -26.19365504 -4.95400316 -34.875 -2.4375 C-38.88968015 -0.59074713 -41.62356401 -0.76966126 -46 -1 C-45 -3 -45 -3 -43.12890625 -3.8515625 C-27.77321818 -8.47930411 -14.34304278 -6.56575255 0 0 Z " fill="#A1DDE4" transform="translate(145,79)"/>
<path d="M0 0 C0 2 0 2 -1.6875 4.0625 C-4.21335423 6.17875625 -5.77071161 6.64119018 -9 7 C-9.144375 7.639375 -9.28875 8.27875 -9.4375 8.9375 C-10 11 -10 11 -11 12 C-13.18639453 12.07258946 -15.37500389 12.08373783 -17.5625 12.0625 C-19.35880859 12.04896484 -19.35880859 12.04896484 -21.19140625 12.03515625 C-22.11824219 12.02355469 -23.04507813 12.01195312 -24 12 C-21.35426467 9.92684918 -18.74508203 8.24442998 -15.7421875 6.73828125 C-14.55689453 6.14370117 -14.55689453 6.14370117 -13.34765625 5.53710938 C-12.53167969 5.13298828 -11.71570313 4.72886719 -10.875 4.3125 C-10.05128906 3.89677734 -9.22757813 3.48105469 -8.37890625 3.05273438 C-7.59128906 2.66021484 -6.80367188 2.26769531 -5.9921875 1.86328125 C-5.27401855 1.50532471 -4.55584961 1.14736816 -3.81591797 0.77856445 C-2 0 -2 0 0 0 Z " fill="#DBE5EB" transform="translate(265,180)"/>
<path d="M0 0 C0.33 0 0.66 0 1 0 C1.02694851 1.95825873 1.04637218 3.91662226 1.0625 5.875 C1.07410156 6.96554688 1.08570313 8.05609375 1.09765625 9.1796875 C1 12 1 12 0 14 C-0.6227887 24.51554761 0.10002179 34.64456455 1.93261719 45.00927734 C2.87219892 50.42470506 3.13186365 55.50018675 3 61 C2.67 61 2.34 61 2 61 C-4.12445877 22.21885456 -4.12445877 22.21885456 -2 9 C-1.34 9 -0.68 9 0 9 C0 6.03 0 3.06 0 0 Z " fill="#50B0B1" transform="translate(166,180)"/>
<path d="M0 0 C0 0.99 0 1.98 0 3 C-0.928125 3.1546875 -0.928125 3.1546875 -1.875 3.3125 C-4.36526484 3.87525373 -4.36526484 3.87525373 -6 7 C-6.99 7 -7.98 7 -9 7 C-9.226875 7.53625 -9.45375 8.0725 -9.6875 8.625 C-11.48477111 11.87720486 -13.4219781 14.29921515 -16 17 C-17.32 17 -18.64 17 -20 17 C-20 17.66 -20 18.32 -20 19 C-21.65 19.66 -23.3 20.32 -25 21 C-22.18020225 16.33648834 -19.39582613 13.24908888 -15 10 C-14.34 10 -13.68 10 -13 10 C-13 9.34 -13 8.68 -13 8 C-11.26451831 6.55473264 -9.46024037 5.1912778 -7.625 3.875 C-6.62726563 3.15054688 -5.62953125 2.42609375 -4.6015625 1.6796875 C-2 0 -2 0 0 0 Z " fill="#C7DAE9" transform="translate(226,201)"/>
<path d="M0 0 C0.66 0.33 1.32 0.66 2 1 C-0.28905883 5.09621053 -2.85655548 8.53415091 -6 12 C-6.66 12 -7.32 12 -8 12 C-8 13.65 -8 15.3 -8 17 C-8.66 17 -9.32 17 -10 17 C-9.938125 18.11375 -9.87625 19.2275 -9.8125 20.375 C-9.9053125 22.169375 -9.9053125 22.169375 -10 24 C-10.99 24.66 -11.98 25.32 -13 26 C-13.90992411 17.12823993 -8.91333961 10.44293354 -3.5859375 3.84765625 C-2 2 -2 2 0 0 Z " fill="#BAE8E8" transform="translate(87,84)"/>
<path d="M0 0 C3.96 1.98 7.92 3.96 12 6 C12.33 18.54 12.66 31.08 13 44 C12.67 44 12.34 44 12 44 C11.22199319 39.20004797 10.88148335 34.61437936 10.90234375 29.75390625 C10.9037587 29.09792953 10.90517365 28.44195282 10.90663147 27.76609802 C10.91216969 25.69818298 10.92470998 23.63038158 10.9375 21.5625 C10.94252301 20.14909012 10.9470845 18.73567852 10.95117188 17.32226562 C10.96211874 13.88147432 10.97933962 10.44074828 11 7 C9.02 7 7.04 7 5 7 C5 6.34 5 5.68 5 5 C4.01 5 3.02 5 2 5 C2 4.01 2 3.02 2 2 C1.34 2 0.68 2 0 2 C0 1.34 0 0.68 0 0 Z " fill="#A6DDD8" transform="translate(141,195)"/>
<path d="M0 0 C0.99 0.33 1.98 0.66 3 1 C1.8553125 2.36125 1.8553125 2.36125 0.6875 3.75 C-6.04816401 13.32073163 -5.93255692 26.69766152 -7 38 C-7.33 38 -7.66 38 -8 38 C-8.33568548 12.78629032 -8.33568548 12.78629032 -4 6 C-3.34 6 -2.68 6 -2 6 C-2 4.68 -2 3.36 -2 2 C-1.34 2 -0.68 2 0 2 C0 1.34 0 0.68 0 0 Z " fill="#3DA7A5" transform="translate(79,90)"/>
<path d="M0 0 C1.32 0 2.64 0 4 0 C4.07347656 0.95712891 4.07347656 0.95712891 4.1484375 1.93359375 C4.22320312 2.75988281 4.29796875 3.58617188 4.375 4.4375 C4.44460938 5.26121094 4.51421875 6.08492188 4.5859375 6.93359375 C4.72257812 7.61550781 4.85921875 8.29742187 5 9 C5.66 9.33 6.32 9.66 7 10 C7 15.94 7 21.88 7 28 C6.34 28.33 5.68 28.66 5 29 C4.96132813 27.49373047 4.96132813 27.49373047 4.921875 25.95703125 C4.57377303 16.66213794 3.235418 8.78829819 0 0 Z " fill="#365389" transform="translate(273,70)"/>
<path d="M0 0 C0.86367187 -0.00386719 1.72734375 -0.00773437 2.6171875 -0.01171875 C9.76769805 -0.00085171 16.23278641 0.64919015 23 3.125 C23 3.455 23 3.785 23 4.125 C21.33372448 4.18013412 19.66688588 4.21829293 18 4.25 C16.6078125 4.28480469 16.6078125 4.28480469 15.1875 4.3203125 C12 4.125 12 4.125 8.3125 3.125 C3.22269103 1.75923459 -1.76387931 1.90611094 -7 2 C-7.96550781 2.00902344 -8.93101562 2.01804687 -9.92578125 2.02734375 C-12.28412099 2.05069365 -14.64192286 2.08343953 -17 2.125 C-17 1.795 -17 1.465 -17 1.125 C-11.29776496 0.14880215 -5.7787685 -0.02587508 0 0 Z " fill="#3D557D" transform="translate(253,17.875)"/>
<path d="M0 0 C9.30240285 1.86476739 16.32052365 6.7217432 24 12 C20.23375329 13.25541557 18.62811066 12.37061958 15 11 C15 10.34 15 9.68 15 9 C14.319375 8.7525 13.63875 8.505 12.9375 8.25 C9.42834854 6.75674406 6.2978881 4.91877126 3 3 C1.67353844 2.3197633 0.34391123 1.64507739 -1 1 C-0.67 0.67 -0.34 0.34 0 0 Z " fill="#299B97" transform="translate(121,35)"/>
<path d="M0 0 C2.31 0 4.62 0 7 0 C7 0.33 7 0.66 7 1 C5.35 1 3.7 1 2 1 C2 1.66 2 2.32 2 3 C-7.9470536 5.5035281 -17.82766893 5.18974296 -28 5 C-27.67 3.68 -27.34 2.36 -27 1 C-27 1.99 -27 2.98 -27 4 C-22.38 4 -17.76 4 -13 4 C-13 3.34 -13 2.68 -13 2 C-8.71 2 -4.42 2 0 2 C0 1.34 0 0.68 0 0 Z " fill="#BAEDEE" transform="translate(206,254)"/>
<path d="M0 0 C0.83203125 1.609375 0.83203125 1.609375 1 4 C-0.70298691 6.29442564 -2.33741373 8.21903799 -4.3125 10.25 C-4.82490234 10.80429688 -5.33730469 11.35859375 -5.86523438 11.9296875 C-7.19327636 13.3356459 -8.59238507 14.67371393 -10 16 C-10.66 16 -11.32 16 -12 16 C-12 16.99 -12 17.98 -12 19 C-12.66 19 -13.32 19 -14 19 C-12.56563891 14.73568324 -10.44379516 11.80984447 -7.5625 8.375 C-6.78003906 7.43398437 -5.99757812 6.49296875 -5.19140625 5.5234375 C-3.51771192 3.59615312 -1.84095853 1.76400528 0 0 Z " fill="#CCD6E4" transform="translate(200,222)"/>
<path d="M0 0 C0.66 0.33 1.32 0.66 2 1 C1.01 2.485 1.01 2.485 0 4 C-0.99 4 -1.98 4 -3 4 C-3 4.99 -3 5.98 -3 7 C-4.72440365 7.98753064 -6.45475026 8.96468806 -8.1875 9.9375 C-9.15042969 10.48277344 -10.11335937 11.02804688 -11.10546875 11.58984375 C-13.80662842 12.90579333 -16.04356101 13.57301887 -19 14 C-15.53233124 10.17483962 -11.54420806 7.54245288 -7.25 4.75 C-6.20392578 4.06164062 -6.20392578 4.06164062 -5.13671875 3.359375 C-3.42725789 2.23534594 -1.71400488 1.11708776 0 0 Z " fill="#3D4D7A" transform="translate(243,144)"/>
<path d="M0 0 C0.75 1.6875 0.75 1.6875 1 4 C-0.8125 6.75 -0.8125 6.75 -3 9 C-3.66 9 -4.32 9 -5 9 C-5.10957031 9.63808594 -5.21914062 10.27617188 -5.33203125 10.93359375 C-5.49058594 11.75988281 -5.64914063 12.58617188 -5.8125 13.4375 C-5.96332031 14.26121094 -6.11414063 15.08492187 -6.26953125 15.93359375 C-6.51058594 16.61550781 -6.75164062 17.29742187 -7 18 C-7.99 18.33 -8.98 18.66 -10 19 C-10 19.66 -10 20.32 -10 21 C-10.66 21 -11.32 21 -12 21 C-9.89010608 13.19339248 -5.96642596 5.50150965 0 0 Z " fill="#B0CADE" transform="translate(196,69)"/>
<path d="M0 0 C-1.40579765 3.37245758 -2.9583473 4.98208611 -5.9375 7.0625 C-8.93048323 9.16965488 -8.93048323 9.16965488 -11.50390625 11.74609375 C-11.99761719 12.15988281 -12.49132812 12.57367188 -13 13 C-15.1875 12.6875 -15.1875 12.6875 -17 12 C-15.44233138 10.55726615 -13.87864043 9.12103292 -12.3125 7.6875 C-11.44238281 6.88699219 -10.57226562 6.08648437 -9.67578125 5.26171875 C-3.4507772 0 -3.4507772 0 0 0 Z " fill="#264A76" transform="translate(218,27)"/>
<path d="M0 0 C2.64 0 5.28 0 8 0 C8 0.66 8 1.32 8 2 C8.99 2 9.98 2 11 2 C11 2.66 11 3.32 11 4 C12.65 4 14.3 4 16 4 C16.66 5.98 17.32 7.96 18 10 C14.37630223 8.64923094 11.17229444 7.01669385 7.875 5 C7.02679688 4.484375 6.17859375 3.96875 5.3046875 3.4375 C3.5169104 2.32241191 1.75315355 1.16876903 0 0 Z " fill="#BCEBE9" transform="translate(133,144)"/>
<path d="M0 0 C0.99 0 1.98 0 3 0 C1.46583702 3.98882376 -1.4247074 7.64783382 -5 10 C-7.1953125 9.66796875 -7.1953125 9.66796875 -9 9 C-5.67692308 3.21538462 -5.67692308 3.21538462 -2.25 2.125 C-1.5075 2.08375 -0.765 2.0425 0 2 C0 1.34 0 0.68 0 0 Z " fill="#149490" transform="translate(243,238)"/>
<path d="M0 0 C0.33 0 0.66 0 1 0 C1.13277344 0.80824219 1.26554688 1.61648437 1.40234375 2.44921875 C1.57894531 3.51785156 1.75554687 4.58648437 1.9375 5.6875 C2.11152344 6.74324219 2.28554687 7.79898438 2.46484375 8.88671875 C2.93167121 11.60249604 3.44422616 14.30124235 4 17 C0.2047869 15.50902342 -1.61042731 13.24299151 -4 10 C-2.68 9.34 -1.36 8.68 0 8 C0 5.36 0 2.72 0 0 Z " fill="#D0F2F0" transform="translate(152,232)"/>
<path d="M0 0 C0.99 0 1.98 0 3 0 C2.67 0.99 2.34 1.98 2 3 C1.85060226 4.91765594 1.75189717 6.83946522 1.68359375 8.76171875 C1.64169922 9.87998047 1.59980469 10.99824219 1.55664062 12.15039062 C1.51732422 13.31763672 1.47800781 14.48488281 1.4375 15.6875 C1.39431641 16.86634766 1.35113281 18.04519531 1.30664062 19.25976562 C1.20048824 22.17305883 1.09843758 25.08643757 1 28 C0.34 28 -0.32 28 -1 28 C-1.12873737 18.58786748 -0.79822348 9.37912587 0 0 Z " fill="#11998C" transform="translate(154,202)"/>
<path d="M0 0 C0.66 0.33 1.32 0.66 2 1 C1.83757812 1.84820312 1.67515625 2.69640625 1.5078125 3.5703125 C0.26629103 11.95535753 0.66330072 20.64562948 2 29 C-0.19344374 27.25596964 -0.93799755 26.35160394 -1.43237305 23.5480957 C-1.45855713 22.60023193 -1.48474121 21.65236816 -1.51171875 20.67578125 C-1.54716797 19.64775391 -1.58261719 18.61972656 -1.61914062 17.56054688 C-1.64169922 16.48869141 -1.66425781 15.41683594 -1.6875 14.3125 C-1.72166016 13.22904297 -1.75582031 12.14558594 -1.79101562 11.02929688 C-1.8735456 8.3529678 -1.94267937 5.67696841 -2 3 C-1.34 3 -0.68 3 0 3 C0 2.01 0 1.02 0 0 Z " fill="#18969C" transform="translate(71,107)"/>
<path d="M0 0 C0 0.66 0 1.32 0 2 C1.32 2 2.64 2 4 2 C4 2.66 4 3.32 4 4 C5.65 4 7.3 4 9 4 C9 4.99 9 5.98 9 7 C7.37433394 6.52309796 5.74948689 6.04340334 4.125 5.5625 C3.22007812 5.29566406 2.31515625 5.02882813 1.3828125 4.75390625 C-1 4 -1 4 -3 3 C-5.71262116 2.7677354 -8.40773126 2.58063765 -11.125 2.4375 C-11.87910156 2.39431641 -12.63320312 2.35113281 -13.41015625 2.30664062 C-15.27321888 2.2005168 -17.13658524 2.09974999 -19 2 C-19 1.67 -19 1.34 -19 1 C-16.39590255 0.83218705 -13.7917318 0.66570349 -11.1875 0.5 C-10.08051758 0.42845703 -10.08051758 0.42845703 -8.95117188 0.35546875 C-5.96175412 0.16609387 -2.99625426 0 0 0 Z " fill="#395082" transform="translate(249,48)"/>
<path d="M0 0 C4.12652081 0.35945303 7.45985447 2.02864849 11.125 3.875 C12.67574219 4.64457031 12.67574219 4.64457031 14.2578125 5.4296875 C16.62523891 6.78539322 18.22879412 7.96005944 20 10 C18.68 10.33 17.36 10.66 16 11 C16 10.01 16 9.02 16 8 C14.68 8 13.36 8 12 8 C12 7.34 12 6.68 12 6 C11.40832031 5.87882812 10.81664062 5.75765625 10.20703125 5.6328125 C5.96196415 4.73255357 1.97560339 3.79543379 -2 2 C-1.34 1.34 -0.68 0.68 0 0 Z " fill="#243F6E" transform="translate(276,22)"/>
<path d="M0 0 C0.99 0.66 1.98 1.32 3 2 C2.57589844 2.40089844 2.15179688 2.80179688 1.71484375 3.21484375 C-3.01786946 7.80193501 -7.06179417 12.72112835 -11 18 C-11.33 16.68 -11.66 15.36 -12 14 C-11.34 14 -10.68 14 -10 14 C-9.67 12.68 -9.34 11.36 -9 10 C-8.01 10 -7.02 10 -6 10 C-6 8.68 -6 7.36 -6 6 C-5.34 6 -4.68 6 -4 6 C-4 5.34 -4 4.68 -4 4 C-3.01 4 -2.02 4 -1 4 C-0.67 2.68 -0.34 1.36 0 0 Z " fill="#213C72" transform="translate(200,218)"/>
<path d="M0 0 C1.65 0 3.3 0 5 0 C5 1.32 5 2.64 5 4 C6.32 4 7.64 4 9 4 C9 4.66 9 5.32 9 6 C9.66 6 10.32 6 11 6 C11 6.66 11 7.32 11 8 C11.66 8 12.32 8 13 8 C13.33 9.32 13.66 10.64 14 12 C10.84717276 10.57910701 8.46222036 8.84968149 5.875 6.5625 C5.19179687 5.96566406 4.50859375 5.36882812 3.8046875 4.75390625 C2 3 2 3 0 0 Z " fill="#3DA1A2" transform="translate(88,224)"/>
<path d="M0 0 C0.33 0 0.66 0 1 0 C1.06058594 1.27875 1.12117188 2.5575 1.18359375 3.875 C1.26807216 5.5833411 1.35271641 7.29167401 1.4375 9 C1.47681641 9.83917969 1.51613281 10.67835938 1.55664062 11.54296875 C1.92942615 18.94132762 2.37392357 25.99712952 5 33 C3.04663086 32.27685547 3.04663086 32.27685547 1 31 C0.39282227 29.00830078 0.39282227 29.00830078 0.25390625 26.5703125 C0.1986377 25.67473633 0.14336914 24.77916016 0.08642578 23.85644531 C-0.05467473 19.19295383 -0.10509158 14.54041628 -0.0625 9.875 C-0.05798828 8.91851562 -0.05347656 7.96203125 -0.04882812 6.9765625 C-0.03720017 4.65097242 -0.02086102 2.3255224 0 0 Z " fill="#B9E1D8" transform="translate(123,145)"/>
<path d="M0 0 C-3.31519891 3.01069618 -5.54542363 3.37585958 -9.97265625 3.36328125 C-11.11927734 3.36263672 -12.26589844 3.36199219 -13.44726562 3.36132812 C-14.64029297 3.34521484 -15.83332031 3.32910156 -17.0625 3.3125 C-18.25939453 3.31572266 -19.45628906 3.31894531 -20.68945312 3.32226562 C-29.59933258 3.26711162 -29.59933258 3.26711162 -33 1 C-32.30962646 1.01047363 -31.61925293 1.02094727 -30.90795898 1.03173828 C-27.75117701 1.07355697 -24.59445355 1.09940802 -21.4375 1.125 C-19.80844727 1.15013672 -19.80844727 1.15013672 -18.14648438 1.17578125 C-13.51827715 1.20391625 -3.60863294 -1.80431647 0 0 Z " fill="#90D7D9" transform="translate(201,273)"/>
<path d="M0 0 C0.33 0 0.66 0 1 0 C1.02694851 1.95825873 1.04637218 3.91662226 1.0625 5.875 C1.07410156 6.96554688 1.08570313 8.05609375 1.09765625 9.1796875 C1 12 1 12 0 14 C-0.22858114 16.0374763 -0.41024278 18.08040303 -0.5625 20.125 C-0.64628906 21.22070312 -0.73007813 22.31640625 -0.81640625 23.4453125 C-0.87699219 24.28835937 -0.93757812 25.13140625 -1 26 C-1.66 25.34 -2.32 24.68 -3 24 C-2.98252112 21.40730017 -2.86231408 18.9474846 -2.625 16.375 C-2.56828125 15.66859375 -2.5115625 14.9621875 -2.453125 14.234375 C-2.31159079 12.48878639 -2.15702613 10.74426327 -2 9 C-1.34 9 -0.68 9 0 9 C0 6.03 0 3.06 0 0 Z " fill="#66C4CA" transform="translate(166,180)"/>
<path d="M0 0 C10.395 3.465 10.395 3.465 21 7 C21 7.33 21 7.66 21 8 C16.20432276 8.36889825 12.58720538 7.36587985 8.1484375 5.75390625 C6.11470059 5.04024948 4.09772667 4.48883676 2 4 C2 3.34 2 2.68 2 2 C1.34 2 0.68 2 0 2 C0 1.34 0 0.68 0 0 Z " fill="#D1F6FA" transform="translate(150,268)"/>
<path d="M0 0 C4.20240011 3.71750779 6.99782679 8.31660979 10 13 C9.67 13.66 9.34 14.32 9 15 C6.69 14.34 4.38 13.68 2 13 C2.66 11.02 3.32 9.04 4 7 C3.34 7 2.68 7 2 7 C1.34 4.69 0.68 2.38 0 0 Z " fill="#3EA5A6" transform="translate(124,211)"/>
<path d="M0 0 C1.18771723 3.42943519 0.80226223 5.37784675 -0.4375 8.75 C-0.72496094 9.54921875 -1.01242188 10.3484375 -1.30859375 11.171875 C-1.53675781 11.77515625 -1.76492187 12.3784375 -2 13 C-4.67455183 11.66272409 -4.98881385 10.26711677 -6.1875 7.5625 C-6.55230469 6.75941406 -6.91710937 5.95632812 -7.29296875 5.12890625 C-8 3 -8 3 -7 1 C-6.34 1.33 -5.68 1.66 -5 2 C-4.67 2.99 -4.34 3.98 -4 5 C-3.01 5.33 -2.02 5.66 -1 6 C-0.67 4.02 -0.34 2.04 0 0 Z " fill="#99CCD7" transform="translate(177,75)"/>
<path d="M0 0 C1.33140364 3.80401039 0.80123022 7.05786873 0.25 11 C0.01023437 12.8253125 0.01023437 12.8253125 -0.234375 14.6875 C-0.98525128 17.93618922 -1.78523649 19.56619394 -4 22 C-4.62599202 14.17509977 -2.32514129 7.39062767 0 0 Z " fill="#33A19A" transform="translate(28,78)"/>
<path d="M0 0 C1.2942471 2.58849421 0.81710662 3.70980086 0.1875 6.5 C-0.06966797 7.69109375 -0.06966797 7.69109375 -0.33203125 8.90625 C-1 11 -1 11 -3 13 C-3.99 13 -4.98 13 -6 13 C-3.10933941 3.40546697 -3.10933941 3.40546697 0 0 Z " fill="#16326C" transform="translate(189,52)"/>
<path d="M0 0 C0.33 0 0.66 0 1 0 C2.23107719 7.72720775 3.2700558 15.1683819 3 23 C-0.31860439 18.02209342 -0.12977499 13.60809905 -0.0625 7.75 C-0.05798828 7.00492187 -0.05347656 6.25984375 -0.04882812 5.4921875 C-0.03709246 3.6614236 -0.0191585 1.83070127 0 0 Z " fill="#C3EDF2" transform="translate(72,116)"/>
<path d="M0 0 C6.18160604 0.53753096 11.326858 2.54582388 17 5 C11.43387031 6.85537656 5.20910541 4.35249922 0 2 C0 1.34 0 0.68 0 0 Z " fill="#C2EBF0" transform="translate(128,74)"/>
<path d="M0 0 C4.12767046 6.1915057 5.39590347 11.60980189 5 19 C3.09598862 17.09598862 2.06479561 15.66574314 1.80078125 12.953125 C1.8113422 10.96766727 1.90084957 8.9830086 2 7 C1.34 7 0.68 7 0 7 C0 4.69 0 2.38 0 0 Z " fill="#254274" transform="translate(320,63)"/>
<path d="M0 0 C0 0.99 0 1.98 0 3 C-1.32 3.33 -2.64 3.66 -4 4 C-4.33 5.32 -4.66 6.64 -5 8 C-7.64 8 -10.28 8 -13 8 C-10.20375042 5.81302498 -7.36692128 4.00847187 -4.25 2.3125 C-3.45078125 1.87550781 -2.6515625 1.43851562 -1.828125 0.98828125 C-1.22484375 0.66214844 -0.6215625 0.33601563 0 0 Z " fill="#C0EAEF" transform="translate(223,260)"/>
<path d="M0 0 C1.4765625 1.10546875 1.4765625 1.10546875 3 3 C3.9169102 9.73299748 3.91433738 16.29159132 0 22 C-1.125 18.25 -1.125 18.25 0 16 C0.07181821 13.28239892 0.09299506 10.59140612 0.0625 7.875 C0.05798828 7.12089844 0.05347656 6.36679688 0.04882812 5.58984375 C0.03703499 3.72652873 0.01909942 1.86325445 0 0 Z " fill="#D4F1F4" transform="translate(166,176)"/>
<path d="M0 0 C0.66 1.32 1.32 2.64 2 4 C2.66 4 3.32 4 4 4 C4.33 3.34 4.66 2.68 5 2 C4.34 5.96 3.68 9.92 3 14 C2.34 14 1.68 14 1 14 C0.67 9.38 0.34 4.76 0 0 Z " fill="#BFE2E7" transform="translate(168,228)"/>
<path d="M0 0 C2.5417666 3.8126499 4.00365091 7.839957 5.68359375 12.08984375 C6.8843048 14.74423465 8.24043351 16.70692064 10 19 C10 19.66 10 20.32 10 21 C9.34 21 8.68 21 8 21 C0 6.86163522 0 6.86163522 0 0 Z " fill="#A1D7D6" transform="translate(29,145)"/>
<path d="M0 0 C1.11032152 3.59681619 0.56514121 5.69166219 -0.453125 9.296875 C-1.69171544 15.41905061 -1.71282226 21.77277748 -2 28 C-2.33 28 -2.66 28 -3 28 C-3.02727345 25.33326258 -3.04696948 22.66681131 -3.0625 20 C-3.07087891 19.25621094 -3.07925781 18.51242188 -3.08789062 17.74609375 C-3.14453969 4.71680953 -3.14453969 4.71680953 0 0 Z " fill="#DFF5F5" transform="translate(24,88)"/>
<path d="M0 0 C0.99 0.33 1.98 0.66 3 1 C-0.3 4.63 -3.6 8.26 -7 12 C-7.33 10.68 -7.66 9.36 -8 8 C-7.34 8 -6.68 8 -6 8 C-6 7.34 -6 6.68 -6 6 C-5.34 6 -4.68 6 -4 6 C-4 5.34 -4 4.68 -4 4 C-3.34 4 -2.68 4 -2 4 C-2 3.34 -2 2.68 -2 2 C-1.34 2 -0.68 2 0 2 C0 1.34 0 0.68 0 0 Z " fill="#233A6E" transform="translate(308,142)"/>
<path d="M0 0 C0.33 1.32 0.66 2.64 1 4 C1.66 4 2.32 4 3 4 C3.33 3.34 3.66 2.68 4 2 C3.40049704 5.68266103 2.75241109 9.34543185 2 13 C1.01 13 0.02 13 -1 13 C-0.67 8.71 -0.34 4.42 0 0 Z " fill="#368C9A" transform="translate(176,98)"/>
<path d="M0 0 C1.25541557 3.76624671 0.37061958 5.37188934 -1 9 C-1.66 9 -2.32 9 -3 9 C-3.2165625 9.928125 -3.2165625 9.928125 -3.4375 10.875 C-4 13 -4 13 -5 15 C-5.66 15 -6.32 15 -7 15 C-5.45454854 9.52067211 -2.84456788 4.88570819 0 0 Z " fill="#2CA29D" transform="translate(36,63)"/>
<path d="M0 0 C8.6309795 3.85421412 8.6309795 3.85421412 11 8 C8.69 8 6.38 8 4 8 C3.34 6.02 2.68 4.04 2 2 C1.34 2 0.68 2 0 2 C0 1.34 0 0.68 0 0 Z " fill="#DAF4F1" transform="translate(145,80)"/>
<path d="M0 0 C5.94 0 11.88 0 18 0 C18 0.33 18 0.66 18 1 C17.09378906 1.04898437 16.18757813 1.09796875 15.25390625 1.1484375 C6.93468409 1.6471721 6.93468409 1.6471721 -1.25 3.125 C-5 4 -5 4 -7 3 C-6 2 -6 2 -2.9375 1.9375 C-1.4834375 1.9684375 -1.4834375 1.9684375 0 2 C0 1.34 0 0.68 0 0 Z " fill="#E1EBF3" transform="translate(241,16)"/>
<path d="M0 0 C4.34568611 3.17117635 6.62186463 6.24372926 9 11 C8.01 11 7.02 11 6 11 C6 10.34 6 9.68 6 9 C5.34 9 4.68 9 4 9 C4 8.34 4 7.68 4 7 C3.34 7 2.68 7 2 7 C2 6.34 2 5.68 2 5 C1.34 5 0.68 5 0 5 C0 3.35 0 1.7 0 0 Z " fill="#37A5A0" transform="translate(136,229)"/>
<path d="M0 0 C2.97 0.495 2.97 0.495 6 1 C6 1.66 6 2.32 6 3 C7.32 3 8.64 3 10 3 C10 3.66 10 4.32 10 5 C10.99 5 11.98 5 13 5 C13.33 5.99 13.66 6.98 14 8 C8.24857558 6.70886391 4.62256741 4.6791863 0 1 C0 0.67 0 0.34 0 0 Z " fill="#47AAA6" transform="translate(139,193)"/>
<path d="M0 0 C1.65 0.33 3.3 0.66 5 1 C2 3 2 3 0 3 C0 9.6 0 16.2 0 23 C-0.33 23 -0.66 23 -1 23 C-1.02894547 19.54168414 -1.04678 16.08339928 -1.0625 12.625 C-1.07087891 11.64015625 -1.07925781 10.6553125 -1.08789062 9.640625 C-1.09111328 8.69960937 -1.09433594 7.75859375 -1.09765625 6.7890625 C-1.10289307 5.91975098 -1.10812988 5.05043945 -1.11352539 4.15478516 C-1 2 -1 2 0 0 Z " fill="#61AFA5" transform="translate(125,141)"/>
<path d="M0 0 C0 0.66 0 1.32 0 2 C-0.66 2 -1.32 2 -2 2 C-2 2.66 -2 3.32 -2 4 C-2.66 4 -3.32 4 -4 4 C-4 4.66 -4 5.32 -4 6 C-4.7425 6.28875 -5.485 6.5775 -6.25 6.875 C-8.56900199 7.82368263 -10.76932676 8.86559779 -13 10 C-5.02739726 0 -5.02739726 0 0 0 Z " fill="#C2DBE4" transform="translate(213,56)"/>
<path d="M0 0 C0.33 0 0.66 0 1 0 C1.22786458 2.05078125 1.45572917 4.1015625 1.68359375 6.15234375 C1.81886614 8.01140229 1.81886614 8.01140229 3 9 C3.14115161 11.67058851 3.04247107 14.32432238 3 17 C1.51171875 15.94921875 1.51171875 15.94921875 0 14 C-0.29296875 10.64453125 -0.29296875 10.64453125 -0.1875 6.8125 C-0.16042969 5.54019531 -0.13335937 4.26789063 -0.10546875 2.95703125 C-0.07066406 1.98121094 -0.03585938 1.00539062 0 0 Z " fill="#2D989B" transform="translate(154,230)"/>
<path d="M0 0 C1.65 0 3.3 0 5 0 C1.33997803 3.05001831 -4.07851471 7 -9 7 C-9 6.01 -9 5.02 -9 4 C-7.68 4 -6.36 4 -5 4 C-5 3.34 -5 2.68 -5 2 C-3.35 2 -1.7 2 0 2 C0 1.34 0 0.68 0 0 Z " fill="#183C68" transform="translate(250,184)"/>
<path d="M0 0 C3.25548753 3.02295271 5.68977058 6.20462309 8 10 C8 10.66 8 11.32 8 12 C7.01 12 6.02 12 5 12 C5 11.34 5 10.68 5 10 C4.34 10 3.68 10 3 10 C3 8.68 3 7.36 3 6 C2.34 6 1.68 6 1 6 C0.67 4.02 0.34 2.04 0 0 Z " fill="#BFE8E7" transform="translate(43,174)"/>
<path d="M0 0 C0.78375 0.04125 1.5675 0.0825 2.375 0.125 C-1.16852618 4.43885796 -5.57692247 6.0971398 -10.625 8.125 C-10.625 6.805 -10.625 5.485 -10.625 4.125 C-8.645 4.125 -6.665 4.125 -4.625 4.125 C-4.625 3.465 -4.625 2.805 -4.625 2.125 C-2.625 0.125 -2.625 0.125 0 0 Z " fill="#143D6B" transform="translate(266.625,175.875)"/>
<path d="M0 0 C0.33 0 0.66 0 1 0 C1.08097324 2.27024968 1.13917704 4.54132075 1.1875 6.8125 C1.22230469 8.07707031 1.25710938 9.34164062 1.29296875 10.64453125 C1 14 1 14 -0.51171875 15.94921875 C-1.00285156 16.29597656 -1.49398438 16.64273438 -2 17 C-2.66 16.67 -3.32 16.34 -4 16 C-4 15.34 -4 14.68 -4 14 C-3.34 14 -2.68 14 -2 14 C-1.34 9.38 -0.68 4.76 0 0 Z " fill="#3A5287" transform="translate(277,99)"/>
<path d="M0 0 C0 2 0 2 -1.5 4.125 C-5.11396501 6.83547375 -7.55481374 6.29634575 -12 6 C-8.59780735 3.25207517 -4.51535412 0 0 0 Z " fill="#C0D6E4" transform="translate(265,180)"/>
<path d="M0 0 C0.66 0.33 1.32 0.66 2 1 C0.38405168 3.04119788 -1.2856382 5.04072937 -3 7 C-3.66 7 -4.32 7 -5 7 C-5 7.66 -5 8.32 -5 9 C-6.65 9 -8.3 9 -10 9 C-6.83047153 5.73991357 -3.60062011 2.77762123 0 0 Z " fill="#3B537F" transform="translate(255,135)"/>
<path d="M0 0 C1.04702186 3.7264085 1.07442057 7.13013042 1 11 C0.34 11 -0.32 11 -1 11 C-1 12.65 -1 14.3 -1 16 C-1.66 16 -2.32 16 -3 16 C-2.40984815 10.49191603 -1.43336231 5.35121931 0 0 Z " fill="#486281" transform="translate(174,225)"/>
<path d="M0 0 C0.33 0 0.66 0 1 0 C1.33 4.95 1.66 9.9 2 15 C-1.7079867 10.05601774 -1.37462069 8.90027593 -1 3 C-0.67 2.01 -0.34 1.02 0 0 Z " fill="#094C70" transform="translate(171,241)"/>
<path d="M0 0 C1.48285242 0.95262034 2.96118201 1.91228405 4.4375 2.875 C5.67306641 3.67550781 5.67306641 3.67550781 6.93359375 4.4921875 C9 6 9 6 10 8 C8.35 8 6.7 8 5 8 C5 7.34 5 6.68 5 6 C3.68 5.67 2.36 5.34 1 5 C0.67 3.35 0.34 1.7 0 0 Z " fill="#D2F1EB" transform="translate(104,238)"/>
<path d="M0 0 C0.66 0 1.32 0 2 0 C2.3227506 4.62609198 1.84450614 7.28026121 -1 11 C-1.66 11 -2.32 11 -3 11 C-2.01 7.37 -1.02 3.74 0 0 Z " fill="#C4CEE0" transform="translate(323,114)"/>
<path d="M0 0 C0.66 0.33 1.32 0.66 2 1 C2 4.96 2 8.92 2 13 C-0.83857423 10.16142577 -0.90046025 6.86673652 -1 3 C-0.67 2.01 -0.34 1.02 0 0 Z " fill="#159AA9" transform="translate(173,87)"/>
<path d="M0 0 C0 3 0 3 -2.25 5.625 C-4.85730848 7.87676642 -5.80056111 8.38472329 -9 9 C-8.06725891 7.87105124 -7.12859878 6.74699124 -6.1875 5.625 C-5.66542969 4.99851562 -5.14335938 4.37203125 -4.60546875 3.7265625 C-3 2 -3 2 0 0 Z " fill="#3EAEA4" transform="translate(51,47)"/>
<path d="M0 0 C0.66 0.33 1.32 0.66 2 1 C1.67 1.99 1.34 2.98 1 4 C0.01 4 -0.98 4 -2 4 C-2 4.66 -2 5.32 -2 6 C-2.66 6 -3.32 6 -4 6 C-4 6.66 -4 7.32 -4 8 C-5.65 8 -7.3 8 -9 8 C-6.17493137 5.0702992 -3.21203935 2.49825283 0 0 Z " fill="#BFECEB" transform="translate(233,252)"/>
<path d="M0 0 C0 1.32 0 2.64 0 4 C-3.83887763 5.48320272 -6.06204091 6.22419163 -10 5 C-8.71186658 4.16121545 -7.41936744 3.32913217 -6.125 2.5 C-5.40570313 2.0359375 -4.68640625 1.571875 -3.9453125 1.09375 C-2 0 -2 0 0 0 Z " fill="#C8DCE7" transform="translate(241,192)"/>
<path d="M0 0 C-1.58689733 3.17379466 -4.75431117 4.78370667 -8 6 C-10.23046875 5.61328125 -10.23046875 5.61328125 -12 5 C-4.88610478 -0.74031891 -4.88610478 -0.74031891 0 0 Z " fill="#334B71" transform="translate(236,152)"/>
<path d="M0 0 C1.32 0.33 2.64 0.66 4 1 C4 2.98 4 4.96 4 7 C2.68 6.67 1.36 6.34 0 6 C0 4.02 0 2.04 0 0 Z " fill="#033961" transform="translate(173,251)"/>
<path d="M0 0 C2.875 0.6875 2.875 0.6875 6 2 C7.25 4.5625 7.25 4.5625 8 7 C8.66 7.33 9.32 7.66 10 8 C9.67 8.66 9.34 9.32 9 10 C7.68113228 8.90344712 6.37009943 7.79746577 5.0625 6.6875 C4.33160156 6.07261719 3.60070312 5.45773438 2.84765625 4.82421875 C1 3 1 3 0 0 Z " fill="#49ADAB" transform="translate(63,200)"/>
<path d="M0 0 C0.33 0 0.66 0 1 0 C1.16682272 4.92127034 1.24828052 8.50343896 -1 13 C-1.66 12.67 -2.32 12.34 -3 12 C-2.69106068 10.3743193 -2.3777305 8.74947252 -2.0625 7.125 C-1.88847656 6.22007813 -1.71445313 5.31515625 -1.53515625 4.3828125 C-1 2 -1 2 0 0 Z " fill="#234673" transform="translate(180,69)"/>
<path d="M0 0 C1.32 0 2.64 0 4 0 C4.33 4.29 4.66 8.58 5 13 C3.09610151 10.14415227 2.30537823 8.0688238 1.375 4.8125 C0.98441406 3.46091797 0.98441406 3.46091797 0.5859375 2.08203125 C0.39257812 1.39496094 0.19921875 0.70789063 0 0 Z " fill="#445E8A" transform="translate(273,70)"/>
<path d="M0 0 C3.46941546 0.45822468 6.67395049 0.89131683 10 2 C10 2.66 10 3.32 10 4 C10.99 4.33 11.98 4.66 13 5 C12.01 5.495 12.01 5.495 11 6 C8.3984375 5.00390625 8.3984375 5.00390625 5.375 3.5625 C3.87066406 2.85287109 3.87066406 2.85287109 2.3359375 2.12890625 C1.56507813 1.75636719 0.79421875 1.38382812 0 1 C0 0.67 0 0.34 0 0 Z " fill="#41A2AA" transform="translate(143,264)"/>
<path d="M0 0 C3.26008643 3.16952847 6.22237877 6.39937989 9 10 C7.68 10 6.36 10 5 10 C4.67 8.68 4.34 7.36 4 6 C3.34 6 2.68 6 2 6 C1.34 4.02 0.68 2.04 0 0 Z " fill="#36A3A3" transform="translate(105,188)"/>
<path d="M0 0 C1.32 0.66 2.64 1.32 4 2 C1.69 4.31 -0.62 6.62 -3 9 C-3.33 8.01 -3.66 7.02 -4 6 C-3.34 6 -2.68 6 -2 6 C-1.7834375 5.071875 -1.7834375 5.071875 -1.5625 4.125 C-1 2 -1 2 0 0 Z " fill="#274C71" transform="translate(200,60)"/>
<path d="M0 0 C-1.36983503 3.16115776 -1.9890638 3.9927092 -5 6 C-7.1875 5.625 -7.1875 5.625 -9 5 C-7.87926138 4.16094435 -6.75325453 3.32892169 -5.625 2.5 C-4.99851563 2.0359375 -4.37203125 1.571875 -3.7265625 1.09375 C-2 0 -2 0 0 0 Z " fill="#3F5B81" transform="translate(218,27)"/>
<path d="M0 0 C2.97 0.495 2.97 0.495 6 1 C6 1.66 6 2.32 6 3 C6.66 3 7.32 3 8 3 C8.33 4.65 8.66 6.3 9 8 C7.68388323 7.04663979 6.37221039 6.08714226 5.0625 5.125 C4.33160156 4.59132813 3.60070312 4.05765625 2.84765625 3.5078125 C1 2 1 2 0 0 Z " fill="#304875" transform="translate(261,57)"/>
<path d="M0 0 C1.875 0.625 1.875 0.625 4 2 C5.25 5.125 5.25 5.125 6 8 C4.68 7.34 3.36 6.68 2 6 C2 5.34 2 4.68 2 4 C1.34 4 0.68 4 0 4 C0 2.68 0 1.36 0 0 Z " fill="#34537D" transform="translate(312,50)"/>
<path d="M0 0 C1.32 0.33 2.64 0.66 4 1 C2.54462432 1.83848804 1.08559627 2.67063934 -0.375 3.5 C-1.59316406 4.19609375 -1.59316406 4.19609375 -2.8359375 4.90625 C-5 6 -5 6 -7 6 C-7 5.34 -7 4.68 -7 4 C-4 2 -4 2 0 2 C0 1.34 0 0.68 0 0 Z " fill="#26929D" transform="translate(215,262)"/>
<path d="M0 0 C2.31 0.33 4.62 0.66 7 1 C7.33 2.32 7.66 3.64 8 5 C8.66 5 9.32 5 10 5 C9.67 5.66 9.34 6.32 9 7 C7.4972763 6.02501855 5.99788037 5.04490611 4.5 4.0625 C3.6646875 3.51722656 2.829375 2.97195312 1.96875 2.41015625 C1.3190625 1.94480469 0.669375 1.47945312 0 1 C0 0.67 0 0.34 0 0 Z " fill="#339E9B" transform="translate(114,245)"/>
<path d="M0 0 C1 3 1 3 0.375 5.125 C-1 7 -1 7 -3.625 7.75 C-4.800625 7.87375 -4.800625 7.87375 -6 8 C-4.55746343 4.63408134 -2.66735273 2.48952921 0 0 Z " fill="#465F82" transform="translate(207,171)"/>
<path d="M0 0 C3.49928164 2.33285443 3.6329098 3.20795069 4.6875 7.125 C4.93886719 8.03507813 5.19023437 8.94515625 5.44921875 9.8828125 C5.72185547 10.93082031 5.72185547 10.93082031 6 12 C5.34 12 4.68 12 4 12 C2.09681116 9.14521674 1.5380901 7.58058692 0.875 4.3125 C0.70742187 3.50425781 0.53984375 2.69601563 0.3671875 1.86328125 C0.24601563 1.24839844 0.12484375 0.63351563 0 0 Z " fill="#30A3A7" transform="translate(158,162)"/>
<path d="M0 0 C1.65 0 3.3 0 5 0 C5 0.66 5 1.32 5 2 C5.66 2 6.32 2 7 2 C7 2.66 7 3.32 7 4 C7.99 4.33 8.98 4.66 10 5 C9.01 5.495 9.01 5.495 8 6 C6.0546875 5.0390625 6.0546875 5.0390625 3.875 3.625 C3.15054688 3.16351563 2.42609375 2.70203125 1.6796875 2.2265625 C1.12539062 1.82179687 0.57109375 1.41703125 0 1 C0 0.67 0 0.34 0 0 Z " fill="#399E9F" transform="translate(124,252)"/>
<path d="M0 0 C0.99 0.33 1.98 0.66 3 1 C3.185625 2.2065625 3.185625 2.2065625 3.375 3.4375 C3.58125 4.283125 3.7875 5.12875 4 6 C4.66 6.33 5.32 6.66 6 7 C5.67 8.32 5.34 9.64 5 11 C4.16151196 9.54462432 3.32936066 8.08559627 2.5 6.625 C1.80390625 5.40683594 1.80390625 5.40683594 1.09375 4.1640625 C0 2 0 2 0 0 Z " fill="#38A5A7" transform="translate(129,178)"/>
<path d="M0 0 C0.66 0.33 1.32 0.66 2 1 C-2.30769231 6.78461538 -2.30769231 6.78461538 -5.8125 7.875 C-6.8953125 7.936875 -6.8953125 7.936875 -8 8 C-5.33333333 5.33333333 -2.66666667 2.66666667 0 0 Z " fill="#3A547C" transform="translate(216,163)"/>
<path d="M0 0 C0.66 0 1.32 0 2 0 C2 1.65 2 3.3 2 5 C1.01 5.33 0.02 5.66 -1 6 C-1 6.66 -1 7.32 -1 8 C-1.66 8 -2.32 8 -3 8 C-1.125 2.25 -1.125 2.25 0 0 Z " fill="#C5D4E3" transform="translate(187,82)"/>
<path d="M0 0 C-3.95523655 2.75668002 -7.22423661 3.5317879 -12 4 C-9.8923766 -0.2152468 -4.26296995 -1.87570678 0 0 Z " fill="#48AAA9" transform="translate(73,37)"/>
<path d="M0 0 C0.66 0.33 1.32 0.66 2 1 C-0.475 5.455 -0.475 5.455 -3 10 C-3.33 10 -3.66 10 -4 10 C-4 8.02 -4 6.04 -4 4 C-3.34 4 -2.68 4 -2 4 C-2 3.34 -2 2.68 -2 2 C-1.34 2 -0.68 2 0 2 C0 1.34 0 0.68 0 0 Z " fill="#1F3A6E" transform="translate(186,236)"/>
<path d="M0 0 C0.33 1.32 0.66 2.64 1 4 C-0.32 4.99 -1.64 5.98 -3 7 C-3.66 6.34 -4.32 5.68 -5 5 C-3.35 3.35 -1.7 1.7 0 0 Z " fill="#C9DAE9" transform="translate(200,222)"/>
<path d="M0 0 C0.33 0 0.66 0 1 0 C1.144375 1.2375 1.28875 2.475 1.4375 3.75 C1.78688502 6.56504499 2.20379366 9.2701497 3 12 C2.01 12 1.02 12 0 12 C0 8.04 0 4.08 0 0 Z " fill="#158295" transform="translate(169,244)"/>
<path d="M0 0 C0.99 0 1.98 0 3 0 C2.3125 1.9375 2.3125 1.9375 1 4 C-1.79597286 4.86029934 -4.07171074 5 -7 5 C-5.75 3.5 -5.75 3.5 -4 2 C-2.68 2 -1.36 2 0 2 C0 1.34 0 0.68 0 0 Z " fill="#59BAAE" transform="translate(243,238)"/>
<path d="M0 0 C1.32 0 2.64 0 4 0 C4 0.66 4 1.32 4 2 C4.99 2 5.98 2 7 2 C6.67 3.32 6.34 4.64 6 6 C3.97945196 4.35830472 1.97956942 2.69088222 0 1 C0 0.67 0 0.34 0 0 Z " fill="#30A29D" transform="translate(105,238)"/>
<path d="M0 0 C1.4540625 0.0309375 1.4540625 0.0309375 2.9375 0.0625 C1.2875 1.7125 -0.3625 3.3625 -2.0625 5.0625 C-2.7225 3.7425 -3.3825 2.4225 -4.0625 1.0625 C-3.0625 0.0625 -3.0625 0.0625 0 0 Z " fill="#DBE8EE" transform="translate(217.0625,159.9375)"/>
<path d="M0 0 C0.33 0 0.66 0 1 0 C0.67 2.31 0.34 4.62 0 7 C-1.32 7.33 -2.64 7.66 -4 8 C-2.87548273 5.0280615 -1.77706209 2.66559313 0 0 Z " fill="#596792" transform="translate(272,115)"/>
<path d="M0 0 C0.33 0 0.66 0 1 0 C0.49202991 4.3177458 -0.19682779 8.03302114 -2 12 C-2.82638376 9.10765685 -3 7.11257569 -3 4 C-2.01 4 -1.02 4 0 4 C0 2.68 0 1.36 0 0 Z " fill="#204274" transform="translate(321,116)"/>
<path d="M0 0 C0.66 0 1.32 0 2 0 C2.1875 2.875 2.1875 2.875 2 6 C1.01 6.66 0.02 7.32 -1 8 C-1.125 2.25 -1.125 2.25 0 0 Z " fill="#D2F2F4" transform="translate(75,102)"/>
<path d="M0 0 C0.99 0 1.98 0 3 0 C2.34 3.3 1.68 6.6 1 10 C0.67 10 0.34 10 0 10 C0 6.7 0 3.4 0 0 Z " fill="#C6E8E7" transform="translate(25,78)"/>
<path d="M0 0 C0.66 0.33 1.32 0.66 2 1 C1.67 1.99 1.34 2.98 1 4 C0.01 4 -0.98 4 -2 4 C-2 4.99 -2 5.98 -2 7 C-2.99 7 -3.98 7 -5 7 C-3.70700306 4.11562221 -2.34058637 2.12780579 0 0 Z " fill="#4E6E84" transform="translate(199,40)"/>
<path d="M0 0 C0.99 0.33 1.98 0.66 3 1 C-0.465 3.97 -0.465 3.97 -4 7 C-4 5.68 -4 4.36 -4 3 C-2.1875 1.1875 -2.1875 1.1875 0 0 Z " fill="#D1DFE7" transform="translate(204,33)"/>
<path d="M0 0 C2.97 1.65 5.94 3.3 9 5 C6 6 6 6 3.375 5.3125 C2.199375 4.6628125 2.199375 4.6628125 1 4 C0.67 2.68 0.34 1.36 0 0 Z " fill="#CCEFF3" transform="translate(132,258)"/>
<path d="M0 0 C0.66 0.33 1.32 0.66 2 1 C1.01 2.485 1.01 2.485 0 4 C-3.625 4.6875 -3.625 4.6875 -7 5 C-5.47058649 1.94117299 -3.05780454 1.31048766 0 0 Z " fill="#2FA39A" transform="translate(234,244)"/>
<path d="M0 0 C0.66 0.33 1.32 0.66 2 1 C-0.57784846 3.64752004 -2.91648098 5.94432065 -6 8 C-4.55746343 4.63408134 -2.66735273 2.48952921 0 0 Z " fill="#BAC1DB" transform="translate(195,228)"/>
<path d="M0 0 C0.33 0 0.66 0 1 0 C1 1.98 1 3.96 1 6 C-0.32 6.33 -1.64 6.66 -3 7 C-1.125 1.125 -1.125 1.125 0 0 Z " fill="#405A80" transform="translate(184,202)"/>
<path d="M0 0 C2.5 2.3125 2.5 2.3125 5 5 C5 5.99 5 6.98 5 8 C3.0625 7.375 3.0625 7.375 1 6 C0.25 2.875 0.25 2.875 0 0 Z " fill="#B0E2E1" transform="translate(56,192)"/>
<path d="M0 0 C1.73662334 3.22515763 2.8905928 6.51329166 4 10 C2.68 9.34 1.36 8.68 0 8 C0 5.36 0 2.72 0 0 Z " fill="#C8F0ED" transform="translate(124,168)"/>
<path d="M0 0 C0.99 0 1.98 0 3 0 C1.25 5.75 1.25 5.75 -1 8 C-1.125 2.25 -1.125 2.25 0 0 Z " fill="#C6EAE2" transform="translate(29,70)"/>
<path d="M0 0 C1.33332095 2.6666419 0.67102033 4.16680303 0 7 C-1.32 7.33 -2.64 7.66 -4 8 C-2.87548273 5.0280615 -1.77706209 2.66559313 0 0 Z " fill="#4A627E" transform="translate(189,52)"/>
<path d="M0 0 C7.625 1.75 7.625 1.75 11 4 C6.35108046 4.32434322 3.77593392 3.776422 0 1 C0 0.67 0 0.34 0 0 Z " fill="#C0EAEF" transform="translate(160,272)"/>
<path d="M0 0 C0.75 1.75 0.75 1.75 1 4 C-0.9375 6.25 -0.9375 6.25 -3 8 C-3 4.42424104 -1.91159393 2.94704065 0 0 Z " fill="#B6C3D3" transform="translate(185,241)"/>
<path d="M0 0 C1.65 0 3.3 0 5 0 C5.33 1.98 5.66 3.96 6 6 C3.97945196 4.35830472 1.97956942 2.69088222 0 1 C0 0.67 0 0.34 0 0 Z " fill="#2E9CA6" transform="translate(88,224)"/>
<path d="M0 0 C0.66 0.33 1.32 0.66 2 1 C0.68 2.65 -0.64 4.3 -2 6 C-3.32 5.67 -4.64 5.34 -6 5 C-4.02 3.35 -2.04 1.7 0 0 Z " fill="#C5D1E2" transform="translate(291,162)"/>
<path d="M0 0 C2.29633824 3.44450737 2.54016485 5.93812283 3 10 C2.67 9.34 2.34 8.68 2 8 C1.34 8 0.68 8 0 8 C0 5.36 0 2.72 0 0 Z " fill="#3BA4A0" transform="translate(73,136)"/>
<path d="M0 0 C-0.66 0 -1.32 0 -2 0 C-2 0.66 -2 1.32 -2 2 C-4.31 2 -6.62 2 -9 2 C-8 0 -8 0 -6.1875 -0.6875 C-3.81180233 -1.02688538 -2.26664171 -0.72856341 0 0 Z " fill="#39A9A2" transform="translate(82,34)"/>
<path d="M0 0 C3.44165321 0.35299007 5.06872538 1.04581692 8 3 C4.7 2.67 1.4 2.34 -2 2 C-1.34 1.34 -0.68 0.68 0 0 Z " fill="#395581" transform="translate(276,22)"/>
</svg>
